# xmcd
#
# Track frame offsets:
#	150
#	9959
#	17824
#	34160
#	47119
#	62025
#	70950
#	84457
#	97234
#	110876
#	120375
#	128575
#	144208
#	158718
#	167654
#	179143
#	189926
#	202794
#	210033
#	220107
#	230125
#	237068
#	246767
#	257036
#	265519
#	275589
#
# Disc length: 3785 seconds
#
# Revision: 1
# Processed by: cddbd v1.5.1PL0 Copyright (c) Steve Scherf et al.
# Submitted via: audiograbber 1.82.02
#
DISCID=660ec71a
DTITLE=Hank Snow - The Hank Snow Collection CD 7
DYEAR=1900
DGENRE=Country
TTITLE0=The Train
TTITLE1=Marching Into Glory
TTITLE2=On The Inside
TTITLE3=Lord It's Me Again
TTITLE4=Lord I Do Believe
TTITLE5=A Rich Man And I
TTITLE6=What Then
TTITLE7=Pantanio
TTITLE8=That Heart Belongs To Me
TTITLE9=Peach Pickin' Time In Georgia
TTITLE10=It's A Sin
TTITLE11=Wedding Bells
TTITLE12=At Mail Call Today
TTITLE13=Those Blues Don't Sparkle Anymore
TTITLE14=Have I Stayed Away Too Long
TTITLE15=San Antonio Rose
TTITLE16=Each Miniute Seems A Million Years
TTITLE17=Blue Street Blues
TTITLE18=Then I turned and Walked Slowly Away
TTITLE19=Blue Rose Of Rio
TTITLE20=My Wubba Dolly
TTITLE21=Tuck Away My Blues
TTITLE22=The Land Of Childhood Dreams
TTITLE23=The Wreck Of Old '97
TTITLE24=My Life Without You
TTITLE25=The One Rose That's Left in My Heart
EXTD=
EXTT0=
EXTT1=
EXTT2=
EXTT3=
EXTT4=
EXTT5=
EXTT6=
EXTT7=
EXTT8=
EXTT9=
EXTT10=
EXTT11=
EXTT12=
EXTT13=
EXTT14=
EXTT15=
EXTT16=
EXTT17=
EXTT18=
EXTT19=
EXTT20=
EXTT21=
EXTT22=
EXTT23=
EXTT24=
EXTT25=
PLAYORDER=
